<?xml version="1.0" standalone="no"?>
<!DOCTYPE svg PUBLIC "-//W3C//DTD SVG 20010904//EN"
 "http://www.w3.org/TR/2001/REC-SVG-20010904/DTD/svg10.dtd">
<svg version="1.0" xmlns="http://www.w3.org/2000/svg"
 width="500.000000pt" height="750.000000pt" viewBox="0 0 500.000000 750.000000"
 preserveAspectRatio="xMidYMid meet">
<metadata>
Created by potrace 1.16, written by Peter Selinger 2001-2019
</metadata>
<g transform="translate(0.000000,750.000000) scale(0.100000,-0.100000)"
fill="#000000" stroke="none">
<path d="M0 3750 l0 -3750 2500 0 2500 0 0 3750 0 3750 -2500 0 -2500 0 0
-3750z m2706 1120 c7 -19 13 -28 14 -20 1 18 35 60 48 60 11 0 21 -97 11 -108
-4 -4 -10 -22 -14 -41 -9 -44 16 -39 29 6 9 29 50 63 75 63 6 0 16 -11 21 -25
17 -44 28 -211 18 -268 -13 -70 -68 -178 -139 -273 -33 -43 -59 -79 -59 -81 0
-10 12 3 55 60 101 130 213 203 328 214 88 8 257 -32 257 -61 0 -18 -38 -56
-55 -56 -8 0 -15 -4 -15 -8 0 -5 24 -5 53 -1 76 11 87 10 87 -4 0 -8 -11 -24
-25 -37 -27 -26 -33 -50 -11 -50 7 0 19 -7 26 -15 10 -12 4 -27 -34 -84 -64
-97 -127 -142 -246 -177 -84 -24 -106 -26 -202 -22 -59 3 -105 2 -103 -2 3 -5
49 -16 103 -26 117 -21 164 -37 261 -88 84 -46 155 -114 172 -165 7 -20 20
-48 31 -63 26 -38 15 -51 -38 -45 l-43 4 36 -51 c19 -28 30 -52 24 -54 -5 -2
-30 4 -56 12 -58 20 -62 20 -43 -1 9 -10 19 -28 22 -39 8 -26 -13 -34 -89 -34
-44 0 -78 11 -183 57 -8 3 -5 -9 8 -29 27 -47 44 -141 30 -168 -14 -26 -20
-25 -53 5 l-27 26 0 -29 c0 -15 -6 -36 -13 -47 -13 -16 -15 -14 -35 27 -12 24
-22 49 -22 55 0 6 -7 16 -15 23 -13 11 -15 8 -11 -21 3 -19 5 -44 5 -56 1 -13
5 -23 11 -23 5 0 7 8 4 18 -2 9 1 7 7 -6 18 -34 5 -37 -58 -16 -69 22 -100 52
-175 166 -100 152 -124 215 -134 355 -7 106 0 113 31 28 20 -57 35 -79 28 -41
-3 15 -9 29 -14 32 -12 7 -12 34 0 34 5 0 14 -13 21 -29 14 -34 47 -67 57 -58
4 4 -6 20 -20 35 -27 29 -35 52 -17 52 6 0 10 -4 10 -10 0 -5 4 -10 9 -10 5 0
7 9 4 20 -4 16 -2 19 12 13 15 -5 17 -2 13 15 -5 17 -2 22 14 22 17 0 18 3 8
15 -24 28 45 -4 79 -37 l32 -31 -5 29 c-3 16 -1 35 4 43 6 10 3 19 -7 26 -9 6
-15 24 -15 38 0 15 -4 30 -9 32 -4 3 -6 17 -3 30 3 18 0 25 -12 25 -13 0 -14
3 -5 14 17 21 -26 82 -63 90 -20 4 -27 10 -22 22 5 12 1 14 -15 9 -15 -5 -19
-4 -15 4 10 15 -17 14 -32 -1 -9 -9 -12 -9 -12 0 0 7 -7 12 -16 12 -9 0 -12
-5 -8 -12 5 -8 2 -9 -9 -5 -13 5 -17 0 -19 -21 0 -15 -4 -4 -8 23 l-6 50 -8
-52 c-10 -60 -29 -70 -48 -25 l-12 27 -6 -40 c-5 -34 -7 -37 -13 -18 -5 14
-14 20 -23 16 -18 -7 -18 -21 0 -55 17 -33 17 -33 -26 -12 -39 20 -224 218
-269 289 -75 117 -100 274 -59 360 11 22 20 49 20 60 1 11 4 14 7 8 2 -7 11
-13 18 -13 7 0 16 -8 18 -17 3 -10 3 19 0 65 -7 97 1 100 57 22 39 -55 54 -63
44 -25 -4 16 -2 25 6 25 7 0 9 8 5 20 -4 14 -1 22 10 26 11 5 43 -21 111 -91
52 -54 96 -96 97 -94 2 2 15 24 29 49 51 87 159 203 186 198 8 -2 21 -19 28
-38z m-766 -527 c65 -18 127 -48 158 -76 23 -21 31 -44 10 -31 -7 5 -8 3 -4
-5 5 -7 14 -10 21 -7 7 2 15 -4 18 -15 3 -10 16 -23 29 -28 12 -5 34 -19 48
-31 l25 -22 -35 6 -35 7 30 -26 c17 -14 50 -37 75 -50 25 -13 54 -30 65 -39
l20 -15 -20 -1 c-20 -1 -20 -1 -1 -15 19 -14 17 -15 -20 -16 l-39 -1 44 -14
c68 -21 93 -49 49 -56 -22 -3 -21 -4 7 -20 17 -10 24 -17 18 -18 -7 0 -13 -4
-13 -9 0 -4 11 -6 25 -3 28 5 30 0 14 -30 -14 -26 7 -43 30 -25 12 10 13 6 8
-28 l-6 -40 14 30 c11 24 14 26 15 10 l1 -20 9 20 c16 36 11 -296 -5 -381 -19
-100 -48 -180 -77 -213 -13 -14 -28 -31 -34 -37 -22 -25 -87 -64 -105 -64 -15
0 -19 8 -20 33 0 32 0 32 -16 10 -8 -13 -21 -23 -28 -23 -14 0 -28 80 -19 105
4 8 2 15 -3 15 -5 0 -14 -13 -20 -30 -30 -80 -97 21 -94 142 1 49 9 78 42 147
41 84 102 183 135 215 28 29 11 26 -41 -6 -28 -17 -88 -45 -135 -61 -77 -28
-97 -31 -210 -31 -83 -1 -135 3 -155 12 l-30 14 28 24 c28 24 29 44 3 44 -8 0
-19 6 -25 14 -10 11 -5 19 21 37 18 12 35 24 37 26 2 1 -7 11 -20 22 l-24 20
68 66 c38 37 67 68 65 69 -56 25 -90 52 -130 99 -26 32 -48 62 -48 67 0 5 -12
22 -26 39 -22 26 -24 34 -13 47 7 9 23 14 35 11 33 -6 54 10 31 24 -22 13 -57
50 -57 61 0 4 25 5 55 2 47 -6 55 -5 50 9 -4 8 -16 18 -28 21 l-22 6 22 19
c18 15 34 17 100 14 43 -3 103 -11 133 -20z"/>
</g>
</svg>
