<?xml version="1.0" standalone="no"?>
<svg xmlns="http://www.w3.org/2000/svg" viewBox="0 0 100.7 36" width="100.7" height="36"><g fill="#4db141" color="#4db141" transform="translate(0 3.9999999999999982) scale(0.2800001)"><svg width="100.0" height="100.0" x="0.0" y="0.0" viewBox="0 0 100 100"><g><path d="M91.265,48.914c-0.573,0-1.037,0.464-1.037,1.037c0,22.359-18.192,40.551-40.551,40.551   c-22.36,0-40.551-18.192-40.551-40.551c0-13.837,7.134-26.739,18.729-34.164l-1.8,11.103c-0.092,0.566,0.293,1.098,0.858,1.19   c0.056,0.009,0.112,0.013,0.167,0.013c0.5,0,0.94-0.362,1.023-0.871l2.222-13.704c0.044-0.271-0.022-0.549-0.183-0.773   c-0.161-0.223-0.404-0.373-0.675-0.417l-13.941-2.26c-0.573-0.096-1.098,0.293-1.19,0.858c-0.092,0.566,0.293,1.098,0.858,1.19   l11.612,1.882C14.579,21.796,7.052,35.38,7.052,49.951c0,23.504,19.122,42.625,42.625,42.625c23.504,0,42.625-19.121,42.625-42.625   C92.302,49.378,91.838,48.914,91.265,48.914z"></path><path d="M39.469,79.06c0.047,0.54,0.5,0.947,1.032,0.947c0.03,0,0.06-0.001,0.091-0.004c0.571-0.05,0.993-0.552,0.943-1.123   c-0.011-0.132-0.392-5.158,0.769-12.383c1.14,0.128,2.259,0.212,3.337,0.212c5.782,0,10.649-1.835,14.512-5.48   c12.128-11.446,10.13-36.549,10.039-37.612c-0.001-0.012-0.007-0.022-0.009-0.034c-0.005-0.041-0.021-0.078-0.03-0.119   c-0.021-0.088-0.049-0.17-0.091-0.248c-0.009-0.017-0.009-0.036-0.019-0.052c-0.013-0.022-0.036-0.034-0.051-0.055   c-0.05-0.07-0.108-0.131-0.174-0.187c-0.034-0.029-0.065-0.057-0.102-0.081c-0.07-0.046-0.148-0.077-0.229-0.105   c-0.038-0.013-0.073-0.032-0.112-0.04c-0.012-0.003-0.021-0.01-0.033-0.012c-0.221-0.039-22.476-3.818-32.156,13.837   c-8.775,16.006,1.052,27.146,3.147,29.25C39.047,73.498,39.457,78.92,39.469,79.06z M58.726,59.722   c-4.087,3.856-9.492,5.424-16.057,4.723c0.478-2.487,1.138-5.18,2.05-7.99c0.872-0.834,5.492-4.705,14.177-2.547   c0.554,0.132,1.118-0.201,1.257-0.757c0.138-0.556-0.201-1.118-0.757-1.257c-6.344-1.576-10.824-0.221-13.474,1.204   c1.488-3.836,3.463-7.805,6.086-11.694c5.381-2.78,8.71-1.494,8.844-1.44c0.524,0.225,1.135-0.018,1.361-0.544   c0.226-0.527-0.018-1.136-0.545-1.362c-0.143-0.062-2.904-1.192-7.334,0.153c3.56-4.552,8.106-8.891,13.884-12.659   C68.439,31.442,68.358,50.636,58.726,59.722z M39.006,37.519c6.957-12.692,21.07-13.409,27.116-13.078   c-5.279,3.58-9.514,7.63-12.922,11.868c-0.089-0.55-0.227-1.107-0.447-1.674c-0.605-1.562-1.991-3.583-2.806-3.75   c-0.564-0.117-1.11,0.247-1.224,0.808c-0.089,0.43,0.104,0.853,0.452,1.079c0.304,0.323,3.574,3.997,1.187,7.268   c-0.076,0.104-0.126,0.218-0.159,0.336c-1.95,2.909-3.564,5.861-4.879,8.772c-0.375-2.361-1.384-5.02-3.664-7.51   c-0.387-0.422-1.044-0.452-1.466-0.065c-0.422,0.387-0.451,1.043-0.065,1.466c5.133,5.607,2.797,12.233,2.697,12.509   c-0.014,0.038-0.012,0.077-0.021,0.115c-0.868,2.654-1.515,5.204-2.002,7.591C37.932,59.943,31.808,50.649,39.006,37.519z"></path></g></svg></g><path fill="#040728" fill-rule="nonzero" d="M0.64 6.15L0 6.15L0.12 0.41L12.91 0.41L13.03 6.14L12.39 6.14Q12.22 5.24 12.10 4.69Q11.98 4.14 11.80 3.53Q11.63 2.92 11.44 2.58Q11.25 2.24 10.98 1.90Q10.71 1.56 10.37 1.40Q10.02 1.24 9.56 1.14Q9.11 1.04 8.51 1.04L8.51 1.04Q8.46 1.04 8.31 1.05Q8.17 1.05 8.05 1.05L8.05 1.05L8.05 16.49L9.87 16.61L9.87 17.13L3.26 17.13L3.26 16.61L5.05 16.49L4.98 1.07Q4.86 1.07 4.72 1.06Q4.57 1.05 4.52 1.05L4.52 1.05Q4.00 1.05 3.59 1.11Q3.18 1.17 2.84 1.34Q2.51 1.50 2.26 1.69Q2.02 1.88 1.80 2.23Q1.59 2.58 1.45 2.91Q1.30 3.23 1.14 3.80Q0.98 4.37 0.64 6.15L0.64 6.15ZM21.20 17.13L14.59 17.13L14.59 16.61L16.39 16.49L16.39 1.05L14.59 0.94L14.59 0.41L21.20 0.41L21.20 0.94L19.39 1.05L19.39 16.49L21.20 16.61L21.20 17.13ZM23.04 9.07L23.04 9.07Q23.04 7.77 23.32 6.50Q23.60 5.24 24.22 4.05Q24.83 2.87 25.72 1.97Q26.61 1.08 27.93 0.54Q29.24 0 30.81 0L30.81 0Q32.64 0 34.03 1.00Q35.43 2.00 35.43 3.38L35.43 3.38Q35.43 4.07 34.99 4.56Q34.55 5.05 33.79 5.05L33.79 5.05Q33.06 5.05 32.60 4.60Q32.14 4.15 32.14 3.46L32.14 3.46Q32.14 2.78 32.58 2.31Q33.01 1.85 33.66 1.85L33.66 1.85Q33.79 1.85 33.84 1.86L33.84 1.86L33.84 1.82Q33.67 1.49 32.89 1.08Q32.12 0.67 31.03 0.67L31.03 0.67Q28.90 0.67 27.53 2.88Q26.16 5.10 26.16 8.73L26.16 8.73Q26.16 10.29 26.43 11.68Q26.70 13.07 27.23 14.20Q27.76 15.34 28.66 16.01Q29.57 16.69 30.73 16.69L30.73 16.69Q32.39 16.69 33.63 15.70Q34.86 14.71 35.54 13.16L35.54 13.16L36.09 13.42Q34.42 17.54 30.46 17.54L30.46 17.54Q28.73 17.54 27.41 17.06Q26.09 16.58 25.27 15.79Q24.46 15 23.94 13.88Q23.43 12.75 23.23 11.59Q23.04 10.43 23.04 9.07ZM37.52 8.82L37.52 8.82Q37.52 6.41 38.39 4.42Q39.26 2.43 40.94 1.21Q42.62 0 44.81 0L44.81 0Q48.12 0 50.14 2.33Q52.16 4.66 52.16 8.45L52.16 8.45Q52.16 9.83 51.88 11.13Q51.61 12.43 51.02 13.60Q50.44 14.77 49.60 15.64Q48.76 16.51 47.54 17.03Q46.32 17.54 44.88 17.54L44.88 17.54Q41.45 17.54 39.49 15.15Q37.52 12.76 37.52 8.82ZM40.66 8.57L40.66 8.57Q40.66 10.88 41.12 12.73Q41.58 14.59 42.53 15.74Q43.49 16.90 44.81 16.90L44.81 16.90Q46.78 16.90 47.90 14.61Q49.02 12.33 49.02 8.54L49.02 8.54Q49.02 4.61 47.92 2.63Q46.83 0.64 44.88 0.64L44.88 0.64Q44.20 0.64 43.59 0.93Q42.97 1.21 42.43 1.83Q41.89 2.45 41.51 3.36Q41.12 4.27 40.89 5.60Q40.66 6.94 40.66 8.57ZM54.21 4.13L54.21 4.13Q54.21 3.63 54.36 3.11Q54.52 2.58 54.89 2.01Q55.27 1.44 55.83 1.01Q56.40 0.57 57.32 0.29Q58.23 0 59.37 0L59.37 0Q61.63 0 63 1.09Q64.37 2.18 64.37 4.02L64.37 4.02Q64.37 5.65 63.50 7.09Q62.63 8.53 60.35 10.70L60.35 10.70Q56.37 14.54 55.85 14.99L55.85 14.99L60.57 14.93Q61.41 14.92 61.90 14.87Q62.40 14.82 62.84 14.70Q63.28 14.58 63.50 14.34Q63.73 14.10 63.87 13.73Q64.01 13.36 64.05 12.79L64.05 12.79L64.70 12.79L64.58 17.13L54.38 17.13L54.38 15.46Q55.62 14.36 56.95 12.92Q58.28 11.48 59.16 10.27L59.16 10.27Q59.82 9.34 60.26 8.45Q60.69 7.56 60.88 6.74Q61.07 5.93 61.12 5.36Q61.17 4.79 61.17 4.07L61.17 4.07Q61.17 2.37 60.46 1.54Q59.74 0.70 58.51 0.70L58.51 0.70Q57.93 0.70 57.40 0.88Q56.88 1.07 56.54 1.35Q56.20 1.63 55.99 1.91Q55.77 2.19 55.69 2.45L55.69 2.45L55.69 2.50Q55.78 2.48 55.97 2.48L55.97 2.48Q56.73 2.48 57.20 2.96Q57.67 3.43 57.67 4.20L57.67 4.20Q57.67 4.92 57.20 5.40Q56.73 5.88 55.97 5.88L55.97 5.88Q55.15 5.88 54.68 5.37Q54.21 4.86 54.21 4.13Z" transform="translate(36, 9.434)"></path></svg>